<?xml version="1.0" encoding="utf-8" standalone="no"?>
<!DOCTYPE svg PUBLIC "-//W3C//DTD SVG 1.1//EN"
  "http://www.w3.org/Graphics/SVG/1.1/DTD/svg11.dtd">
<svg xmlns:xlink="http://www.w3.org/1999/xlink" width="460.8pt" height="345.6pt" viewBox="0 0 460.8 345.6" xmlns="http://www.w3.org/2000/svg" version="1.1">
 <metadata>
  <rdf:RDF xmlns:dc="http://purl.org/dc/elements/1.1/" xmlns:cc="http://creativecommons.org/ns#" xmlns:rdf="http://www.w3.org/1999/02/22-rdf-syntax-ns#">
   <cc:Work>
    <dc:type rdf:resource="http://purl.org/dc/dcmitype/StillImage"/>
    <dc:date>2023-03-03T13:18:09.639426</dc:date>
    <dc:format>image/svg+xml</dc:format>
    <dc:creator>
     <cc:Agent>
      <dc:title>Matplotlib v3.6.3, https://matplotlib.org/</dc:title>
     </cc:Agent>
    </dc:creator>
   </cc:Work>
  </rdf:RDF>
 </metadata>
 <defs>
  <style type="text/css">*{stroke-linejoin: round; stroke-linecap: butt}</style>
 </defs>
 <g id="figure_1">
  <g id="patch_1">
   <path d="M 0 345.6 
L 460.8 345.6 
L 460.8 0 
L 0 0 
z
" style="fill: #ffffff"/>
  </g>
  <g id="axes_1">
   <g id="patch_2">
    <path d="M 57.6 307.584 
L 414.72 307.584 
L 414.72 41.472 
L 57.6 41.472 
z
" style="fill: #ffffff"/>
   </g>
   <g id="matplotlib.axis_1">
    <g id="xtick_1">
     <g id="line2d_1">
      <path d="M 73.832727 307.584 
L 73.832727 41.472 
" clip-path="url(#p036459f294)" style="fill: none; stroke: #b0b0b0; stroke-width: 0.8; stroke-linecap: square"/>
     </g>
     <g id="line2d_2">
      <defs>
       <path id="m908e7b61df" d="M 0 0 
L 0 3.5 
" style="stroke: #000000; stroke-width: 0.8"/>
      </defs>
      <g>
       <use xlink:href="#m908e7b61df" x="73.832727" y="307.584" style="stroke: #000000; stroke-width: 0.8"/>
      </g>
     </g>
     <g id="text_1">
      <!-- 0 -->
      <g transform="translate(70.651477 322.182437) scale(0.1 -0.1)">
       <defs>
        <path id="DejaVuSans-30" d="M 2034 4250 
Q 1547 4250 1301 3770 
Q 1056 3291 1056 2328 
Q 1056 1369 1301 889 
Q 1547 409 2034 409 
Q 2525 409 2770 889 
Q 3016 1369 3016 2328 
Q 3016 3291 2770 3770 
Q 2525 4250 2034 4250 
z
M 2034 4750 
Q 2819 4750 3233 4129 
Q 3647 3509 3647 2328 
Q 3647 1150 3233 529 
Q 2819 -91 2034 -91 
Q 1250 -91 836 529 
Q 422 1150 422 2328 
Q 422 3509 836 4129 
Q 1250 4750 2034 4750 
z
" transform="scale(0.015625)"/>
       </defs>
       <use xlink:href="#DejaVuSans-30"/>
      </g>
     </g>
    </g>
    <g id="xtick_2">
     <g id="line2d_3">
      <path d="M 114.618474 307.584 
L 114.618474 41.472 
" clip-path="url(#p036459f294)" style="fill: none; stroke: #b0b0b0; stroke-width: 0.8; stroke-linecap: square"/>
     </g>
     <g id="line2d_4">
      <g>
       <use xlink:href="#m908e7b61df" x="114.618474" y="307.584" style="stroke: #000000; stroke-width: 0.8"/>
      </g>
     </g>
     <g id="text_2">
      <!-- 25 -->
      <g transform="translate(108.255974 322.182437) scale(0.1 -0.1)">
       <defs>
        <path id="DejaVuSans-32" d="M 1228 531 
L 3431 531 
L 3431 0 
L 469 0 
L 469 531 
Q 828 903 1448 1529 
Q 2069 2156 2228 2338 
Q 2531 2678 2651 2914 
Q 2772 3150 2772 3378 
Q 2772 3750 2511 3984 
Q 2250 4219 1831 4219 
Q 1534 4219 1204 4116 
Q 875 4013 500 3803 
L 500 4441 
Q 881 4594 1212 4672 
Q 1544 4750 1819 4750 
Q 2544 4750 2975 4387 
Q 3406 4025 3406 3419 
Q 3406 3131 3298 2873 
Q 3191 2616 2906 2266 
Q 2828 2175 2409 1742 
Q 1991 1309 1228 531 
z
" transform="scale(0.015625)"/>
        <path id="DejaVuSans-35" d="M 691 4666 
L 3169 4666 
L 3169 4134 
L 1269 4134 
L 1269 2991 
Q 1406 3038 1543 3061 
Q 1681 3084 1819 3084 
Q 2600 3084 3056 2656 
Q 3513 2228 3513 1497 
Q 3513 744 3044 326 
Q 2575 -91 1722 -91 
Q 1428 -91 1123 -41 
Q 819 9 494 109 
L 494 744 
Q 775 591 1075 516 
Q 1375 441 1709 441 
Q 2250 441 2565 725 
Q 2881 1009 2881 1497 
Q 2881 1984 2565 2268 
Q 2250 2553 1709 2553 
Q 1456 2553 1204 2497 
Q 953 2441 691 2322 
L 691 4666 
z
" transform="scale(0.015625)"/>
       </defs>
       <use xlink:href="#DejaVuSans-32"/>
       <use xlink:href="#DejaVuSans-35" x="63.623047"/>
      </g>
     </g>
    </g>
    <g id="xtick_3">
     <g id="line2d_5">
      <path d="M 155.404221 307.584 
L 155.404221 41.472 
" clip-path="url(#p036459f294)" style="fill: none; stroke: #b0b0b0; stroke-width: 0.8; stroke-linecap: square"/>
     </g>
     <g id="line2d_6">
      <g>
       <use xlink:href="#m908e7b61df" x="155.404221" y="307.584" style="stroke: #000000; stroke-width: 0.8"/>
      </g>
     </g>
     <g id="text_3">
      <!-- 50 -->
      <g transform="translate(149.041721 322.182437) scale(0.1 -0.1)">
       <use xlink:href="#DejaVuSans-35"/>
       <use xlink:href="#DejaVuSans-30" x="63.623047"/>
      </g>
     </g>
    </g>
    <g id="xtick_4">
     <g id="line2d_7">
      <path d="M 196.189968 307.584 
L 196.189968 41.472 
" clip-path="url(#p036459f294)" style="fill: none; stroke: #b0b0b0; stroke-width: 0.8; stroke-linecap: square"/>
     </g>
     <g id="line2d_8">
      <g>
       <use xlink:href="#m908e7b61df" x="196.189968" y="307.584" style="stroke: #000000; stroke-width: 0.8"/>
      </g>
     </g>
     <g id="text_4">
      <!-- 75 -->
      <g transform="translate(189.827468 322.182437) scale(0.1 -0.1)">
       <defs>
        <path id="DejaVuSans-37" d="M 525 4666 
L 3525 4666 
L 3525 4397 
L 1831 0 
L 1172 0 
L 2766 4134 
L 525 4134 
L 525 4666 
z
" transform="scale(0.015625)"/>
       </defs>
       <use xlink:href="#DejaVuSans-37"/>
       <use xlink:href="#DejaVuSans-35" x="63.623047"/>
      </g>
     </g>
    </g>
    <g id="xtick_5">
     <g id="line2d_9">
      <path d="M 236.975715 307.584 
L 236.975715 41.472 
" clip-path="url(#p036459f294)" style="fill: none; stroke: #b0b0b0; stroke-width: 0.8; stroke-linecap: square"/>
     </g>
     <g id="line2d_10">
      <g>
       <use xlink:href="#m908e7b61df" x="236.975715" y="307.584" style="stroke: #000000; stroke-width: 0.8"/>
      </g>
     </g>
     <g id="text_5">
      <!-- 100 -->
      <g transform="translate(227.431965 322.182437) scale(0.1 -0.1)">
       <defs>
        <path id="DejaVuSans-31" d="M 794 531 
L 1825 531 
L 1825 4091 
L 703 3866 
L 703 4441 
L 1819 4666 
L 2450 4666 
L 2450 531 
L 3481 531 
L 3481 0 
L 794 0 
L 794 531 
z
" transform="scale(0.015625)"/>
       </defs>
       <use xlink:href="#DejaVuSans-31"/>
       <use xlink:href="#DejaVuSans-30" x="63.623047"/>
       <use xlink:href="#DejaVuSans-30" x="127.246094"/>
      </g>
     </g>
    </g>
    <g id="xtick_6">
     <g id="line2d_11">
      <path d="M 277.761462 307.584 
L 277.761462 41.472 
" clip-path="url(#p036459f294)" style="fill: none; stroke: #b0b0b0; stroke-width: 0.8; stroke-linecap: square"/>
     </g>
     <g id="line2d_12">
      <g>
       <use xlink:href="#m908e7b61df" x="277.761462" y="307.584" style="stroke: #000000; stroke-width: 0.8"/>
      </g>
     </g>
     <g id="text_6">
      <!-- 125 -->
      <g transform="translate(268.217712 322.182437) scale(0.1 -0.1)">
       <use xlink:href="#DejaVuSans-31"/>
       <use xlink:href="#DejaVuSans-32" x="63.623047"/>
       <use xlink:href="#DejaVuSans-35" x="127.246094"/>
      </g>
     </g>
    </g>
    <g id="xtick_7">
     <g id="line2d_13">
      <path d="M 318.547209 307.584 
L 318.547209 41.472 
" clip-path="url(#p036459f294)" style="fill: none; stroke: #b0b0b0; stroke-width: 0.8; stroke-linecap: square"/>
     </g>
     <g id="line2d_14">
      <g>
       <use xlink:href="#m908e7b61df" x="318.547209" y="307.584" style="stroke: #000000; stroke-width: 0.8"/>
      </g>
     </g>
     <g id="text_7">
      <!-- 150 -->
      <g transform="translate(309.003459 322.182437) scale(0.1 -0.1)">
       <use xlink:href="#DejaVuSans-31"/>
       <use xlink:href="#DejaVuSans-35" x="63.623047"/>
       <use xlink:href="#DejaVuSans-30" x="127.246094"/>
      </g>
     </g>
    </g>
    <g id="xtick_8">
     <g id="line2d_15">
      <path d="M 359.332956 307.584 
L 359.332956 41.472 
" clip-path="url(#p036459f294)" style="fill: none; stroke: #b0b0b0; stroke-width: 0.8; stroke-linecap: square"/>
     </g>
     <g id="line2d_16">
      <g>
       <use xlink:href="#m908e7b61df" x="359.332956" y="307.584" style="stroke: #000000; stroke-width: 0.8"/>
      </g>
     </g>
     <g id="text_8">
      <!-- 175 -->
      <g transform="translate(349.789206 322.182437) scale(0.1 -0.1)">
       <use xlink:href="#DejaVuSans-31"/>
       <use xlink:href="#DejaVuSans-37" x="63.623047"/>
       <use xlink:href="#DejaVuSans-35" x="127.246094"/>
      </g>
     </g>
    </g>
    <g id="xtick_9">
     <g id="line2d_17">
      <path d="M 400.118703 307.584 
L 400.118703 41.472 
" clip-path="url(#p036459f294)" style="fill: none; stroke: #b0b0b0; stroke-width: 0.8; stroke-linecap: square"/>
     </g>
     <g id="line2d_18">
      <g>
       <use xlink:href="#m908e7b61df" x="400.118703" y="307.584" style="stroke: #000000; stroke-width: 0.8"/>
      </g>
     </g>
     <g id="text_9">
      <!-- 200 -->
      <g transform="translate(390.574953 322.182437) scale(0.1 -0.1)">
       <use xlink:href="#DejaVuSans-32"/>
       <use xlink:href="#DejaVuSans-30" x="63.623047"/>
       <use xlink:href="#DejaVuSans-30" x="127.246094"/>
      </g>
     </g>
    </g>
    <g id="text_10">
     <!-- Epoch -->
     <g transform="translate(220.849063 335.860562) scale(0.1 -0.1)">
      <defs>
       <path id="DejaVuSans-45" d="M 628 4666 
L 3578 4666 
L 3578 4134 
L 1259 4134 
L 1259 2753 
L 3481 2753 
L 3481 2222 
L 1259 2222 
L 1259 531 
L 3634 531 
L 3634 0 
L 628 0 
L 628 4666 
z
" transform="scale(0.015625)"/>
       <path id="DejaVuSans-70" d="M 1159 525 
L 1159 -1331 
L 581 -1331 
L 581 3500 
L 1159 3500 
L 1159 2969 
Q 1341 3281 1617 3432 
Q 1894 3584 2278 3584 
Q 2916 3584 3314 3078 
Q 3713 2572 3713 1747 
Q 3713 922 3314 415 
Q 2916 -91 2278 -91 
Q 1894 -91 1617 61 
Q 1341 213 1159 525 
z
M 3116 1747 
Q 3116 2381 2855 2742 
Q 2594 3103 2138 3103 
Q 1681 3103 1420 2742 
Q 1159 2381 1159 1747 
Q 1159 1113 1420 752 
Q 1681 391 2138 391 
Q 2594 391 2855 752 
Q 3116 1113 3116 1747 
z
" transform="scale(0.015625)"/>
       <path id="DejaVuSans-6f" d="M 1959 3097 
Q 1497 3097 1228 2736 
Q 959 2375 959 1747 
Q 959 1119 1226 758 
Q 1494 397 1959 397 
Q 2419 397 2687 759 
Q 2956 1122 2956 1747 
Q 2956 2369 2687 2733 
Q 2419 3097 1959 3097 
z
M 1959 3584 
Q 2709 3584 3137 3096 
Q 3566 2609 3566 1747 
Q 3566 888 3137 398 
Q 2709 -91 1959 -91 
Q 1206 -91 779 398 
Q 353 888 353 1747 
Q 353 2609 779 3096 
Q 1206 3584 1959 3584 
z
" transform="scale(0.015625)"/>
       <path id="DejaVuSans-63" d="M 3122 3366 
L 3122 2828 
Q 2878 2963 2633 3030 
Q 2388 3097 2138 3097 
Q 1578 3097 1268 2742 
Q 959 2388 959 1747 
Q 959 1106 1268 751 
Q 1578 397 2138 397 
Q 2388 397 2633 464 
Q 2878 531 3122 666 
L 3122 134 
Q 2881 22 2623 -34 
Q 2366 -91 2075 -91 
Q 1284 -91 818 406 
Q 353 903 353 1747 
Q 353 2603 823 3093 
Q 1294 3584 2113 3584 
Q 2378 3584 2631 3529 
Q 2884 3475 3122 3366 
z
" transform="scale(0.015625)"/>
       <path id="DejaVuSans-68" d="M 3513 2113 
L 3513 0 
L 2938 0 
L 2938 2094 
Q 2938 2591 2744 2837 
Q 2550 3084 2163 3084 
Q 1697 3084 1428 2787 
Q 1159 2491 1159 1978 
L 1159 0 
L 581 0 
L 581 4863 
L 1159 4863 
L 1159 2956 
Q 1366 3272 1645 3428 
Q 1925 3584 2291 3584 
Q 2894 3584 3203 3211 
Q 3513 2838 3513 2113 
z
" transform="scale(0.015625)"/>
      </defs>
      <use xlink:href="#DejaVuSans-45"/>
      <use xlink:href="#DejaVuSans-70" x="63.183594"/>
      <use xlink:href="#DejaVuSans-6f" x="126.660156"/>
      <use xlink:href="#DejaVuSans-63" x="187.841797"/>
      <use xlink:href="#DejaVuSans-68" x="242.822266"/>
     </g>
    </g>
   </g>
   <g id="matplotlib.axis_2">
    <g id="ytick_1">
     <g id="line2d_19">
      <path d="M 57.6 303.534942 
L 414.72 303.534942 
" clip-path="url(#p036459f294)" style="fill: none; stroke: #b0b0b0; stroke-width: 0.8; stroke-linecap: square"/>
     </g>
     <g id="line2d_20">
      <defs>
       <path id="m0d2e567926" d="M 0 0 
L -3.5 0 
" style="stroke: #000000; stroke-width: 0.8"/>
      </defs>
      <g>
       <use xlink:href="#m0d2e567926" x="57.6" y="303.534942" style="stroke: #000000; stroke-width: 0.8"/>
      </g>
     </g>
     <g id="text_11">
      <!-- 0.00 -->
      <g transform="translate(28.334375 307.33416) scale(0.1 -0.1)">
       <defs>
        <path id="DejaVuSans-2e" d="M 684 794 
L 1344 794 
L 1344 0 
L 684 0 
L 684 794 
z
" transform="scale(0.015625)"/>
       </defs>
       <use xlink:href="#DejaVuSans-30"/>
       <use xlink:href="#DejaVuSans-2e" x="63.623047"/>
       <use xlink:href="#DejaVuSans-30" x="95.410156"/>
       <use xlink:href="#DejaVuSans-30" x="159.033203"/>
      </g>
     </g>
    </g>
    <g id="ytick_2">
     <g id="line2d_21">
      <path d="M 57.6 254.570251 
L 414.72 254.570251 
" clip-path="url(#p036459f294)" style="fill: none; stroke: #b0b0b0; stroke-width: 0.8; stroke-linecap: square"/>
     </g>
     <g id="line2d_22">
      <g>
       <use xlink:href="#m0d2e567926" x="57.6" y="254.570251" style="stroke: #000000; stroke-width: 0.8"/>
      </g>
     </g>
     <g id="text_12">
      <!-- 0.05 -->
      <g transform="translate(28.334375 258.36947) scale(0.1 -0.1)">
       <use xlink:href="#DejaVuSans-30"/>
       <use xlink:href="#DejaVuSans-2e" x="63.623047"/>
       <use xlink:href="#DejaVuSans-30" x="95.410156"/>
       <use xlink:href="#DejaVuSans-35" x="159.033203"/>
      </g>
     </g>
    </g>
    <g id="ytick_3">
     <g id="line2d_23">
      <path d="M 57.6 205.60556 
L 414.72 205.60556 
" clip-path="url(#p036459f294)" style="fill: none; stroke: #b0b0b0; stroke-width: 0.8; stroke-linecap: square"/>
     </g>
     <g id="line2d_24">
      <g>
       <use xlink:href="#m0d2e567926" x="57.6" y="205.60556" style="stroke: #000000; stroke-width: 0.8"/>
      </g>
     </g>
     <g id="text_13">
      <!-- 0.10 -->
      <g transform="translate(28.334375 209.404779) scale(0.1 -0.1)">
       <use xlink:href="#DejaVuSans-30"/>
       <use xlink:href="#DejaVuSans-2e" x="63.623047"/>
       <use xlink:href="#DejaVuSans-31" x="95.410156"/>
       <use xlink:href="#DejaVuSans-30" x="159.033203"/>
      </g>
     </g>
    </g>
    <g id="ytick_4">
     <g id="line2d_25">
      <path d="M 57.6 156.64087 
L 414.72 156.64087 
" clip-path="url(#p036459f294)" style="fill: none; stroke: #b0b0b0; stroke-width: 0.8; stroke-linecap: square"/>
     </g>
     <g id="line2d_26">
      <g>
       <use xlink:href="#m0d2e567926" x="57.6" y="156.64087" style="stroke: #000000; stroke-width: 0.8"/>
      </g>
     </g>
     <g id="text_14">
      <!-- 0.15 -->
      <g transform="translate(28.334375 160.440088) scale(0.1 -0.1)">
       <use xlink:href="#DejaVuSans-30"/>
       <use xlink:href="#DejaVuSans-2e" x="63.623047"/>
       <use xlink:href="#DejaVuSans-31" x="95.410156"/>
       <use xlink:href="#DejaVuSans-35" x="159.033203"/>
      </g>
     </g>
    </g>
    <g id="ytick_5">
     <g id="line2d_27">
      <path d="M 57.6 107.676179 
L 414.72 107.676179 
" clip-path="url(#p036459f294)" style="fill: none; stroke: #b0b0b0; stroke-width: 0.8; stroke-linecap: square"/>
     </g>
     <g id="line2d_28">
      <g>
       <use xlink:href="#m0d2e567926" x="57.6" y="107.676179" style="stroke: #000000; stroke-width: 0.8"/>
      </g>
     </g>
     <g id="text_15">
      <!-- 0.20 -->
      <g transform="translate(28.334375 111.475398) scale(0.1 -0.1)">
       <use xlink:href="#DejaVuSans-30"/>
       <use xlink:href="#DejaVuSans-2e" x="63.623047"/>
       <use xlink:href="#DejaVuSans-32" x="95.410156"/>
       <use xlink:href="#DejaVuSans-30" x="159.033203"/>
      </g>
     </g>
    </g>
    <g id="ytick_6">
     <g id="line2d_29">
      <path d="M 57.6 58.711488 
L 414.72 58.711488 
" clip-path="url(#p036459f294)" style="fill: none; stroke: #b0b0b0; stroke-width: 0.8; stroke-linecap: square"/>
     </g>
     <g id="line2d_30">
      <g>
       <use xlink:href="#m0d2e567926" x="57.6" y="58.711488" style="stroke: #000000; stroke-width: 0.8"/>
      </g>
     </g>
     <g id="text_16">
      <!-- 0.25 -->
      <g transform="translate(28.334375 62.510707) scale(0.1 -0.1)">
       <use xlink:href="#DejaVuSans-30"/>
       <use xlink:href="#DejaVuSans-2e" x="63.623047"/>
       <use xlink:href="#DejaVuSans-32" x="95.410156"/>
       <use xlink:href="#DejaVuSans-35" x="159.033203"/>
      </g>
     </g>
    </g>
    <g id="text_17">
     <!-- Mean RMSE [Cp] -->
     <g transform="translate(22.254687 216.018625) rotate(-90) scale(0.1 -0.1)">
      <defs>
       <path id="DejaVuSans-4d" d="M 628 4666 
L 1569 4666 
L 2759 1491 
L 3956 4666 
L 4897 4666 
L 4897 0 
L 4281 0 
L 4281 4097 
L 3078 897 
L 2444 897 
L 1241 4097 
L 1241 0 
L 628 0 
L 628 4666 
z
" transform="scale(0.015625)"/>
       <path id="DejaVuSans-65" d="M 3597 1894 
L 3597 1613 
L 953 1613 
Q 991 1019 1311 708 
Q 1631 397 2203 397 
Q 2534 397 2845 478 
Q 3156 559 3463 722 
L 3463 178 
Q 3153 47 2828 -22 
Q 2503 -91 2169 -91 
Q 1331 -91 842 396 
Q 353 884 353 1716 
Q 353 2575 817 3079 
Q 1281 3584 2069 3584 
Q 2775 3584 3186 3129 
Q 3597 2675 3597 1894 
z
M 3022 2063 
Q 3016 2534 2758 2815 
Q 2500 3097 2075 3097 
Q 1594 3097 1305 2825 
Q 1016 2553 972 2059 
L 3022 2063 
z
" transform="scale(0.015625)"/>
       <path id="DejaVuSans-61" d="M 2194 1759 
Q 1497 1759 1228 1600 
Q 959 1441 959 1056 
Q 959 750 1161 570 
Q 1363 391 1709 391 
Q 2188 391 2477 730 
Q 2766 1069 2766 1631 
L 2766 1759 
L 2194 1759 
z
M 3341 1997 
L 3341 0 
L 2766 0 
L 2766 531 
Q 2569 213 2275 61 
Q 1981 -91 1556 -91 
Q 1019 -91 701 211 
Q 384 513 384 1019 
Q 384 1609 779 1909 
Q 1175 2209 1959 2209 
L 2766 2209 
L 2766 2266 
Q 2766 2663 2505 2880 
Q 2244 3097 1772 3097 
Q 1472 3097 1187 3025 
Q 903 2953 641 2809 
L 641 3341 
Q 956 3463 1253 3523 
Q 1550 3584 1831 3584 
Q 2591 3584 2966 3190 
Q 3341 2797 3341 1997 
z
" transform="scale(0.015625)"/>
       <path id="DejaVuSans-6e" d="M 3513 2113 
L 3513 0 
L 2938 0 
L 2938 2094 
Q 2938 2591 2744 2837 
Q 2550 3084 2163 3084 
Q 1697 3084 1428 2787 
Q 1159 2491 1159 1978 
L 1159 0 
L 581 0 
L 581 3500 
L 1159 3500 
L 1159 2956 
Q 1366 3272 1645 3428 
Q 1925 3584 2291 3584 
Q 2894 3584 3203 3211 
Q 3513 2838 3513 2113 
z
" transform="scale(0.015625)"/>
       <path id="DejaVuSans-20" transform="scale(0.015625)"/>
       <path id="DejaVuSans-52" d="M 2841 2188 
Q 3044 2119 3236 1894 
Q 3428 1669 3622 1275 
L 4263 0 
L 3584 0 
L 2988 1197 
Q 2756 1666 2539 1819 
Q 2322 1972 1947 1972 
L 1259 1972 
L 1259 0 
L 628 0 
L 628 4666 
L 2053 4666 
Q 2853 4666 3247 4331 
Q 3641 3997 3641 3322 
Q 3641 2881 3436 2590 
Q 3231 2300 2841 2188 
z
M 1259 4147 
L 1259 2491 
L 2053 2491 
Q 2509 2491 2742 2702 
Q 2975 2913 2975 3322 
Q 2975 3731 2742 3939 
Q 2509 4147 2053 4147 
L 1259 4147 
z
" transform="scale(0.015625)"/>
       <path id="DejaVuSans-53" d="M 3425 4513 
L 3425 3897 
Q 3066 4069 2747 4153 
Q 2428 4238 2131 4238 
Q 1616 4238 1336 4038 
Q 1056 3838 1056 3469 
Q 1056 3159 1242 3001 
Q 1428 2844 1947 2747 
L 2328 2669 
Q 3034 2534 3370 2195 
Q 3706 1856 3706 1288 
Q 3706 609 3251 259 
Q 2797 -91 1919 -91 
Q 1588 -91 1214 -16 
Q 841 59 441 206 
L 441 856 
Q 825 641 1194 531 
Q 1563 422 1919 422 
Q 2459 422 2753 634 
Q 3047 847 3047 1241 
Q 3047 1584 2836 1778 
Q 2625 1972 2144 2069 
L 1759 2144 
Q 1053 2284 737 2584 
Q 422 2884 422 3419 
Q 422 4038 858 4394 
Q 1294 4750 2059 4750 
Q 2388 4750 2728 4690 
Q 3069 4631 3425 4513 
z
" transform="scale(0.015625)"/>
       <path id="DejaVuSans-5b" d="M 550 4863 
L 1875 4863 
L 1875 4416 
L 1125 4416 
L 1125 -397 
L 1875 -397 
L 1875 -844 
L 550 -844 
L 550 4863 
z
" transform="scale(0.015625)"/>
       <path id="DejaVuSans-43" d="M 4122 4306 
L 4122 3641 
Q 3803 3938 3442 4084 
Q 3081 4231 2675 4231 
Q 1875 4231 1450 3742 
Q 1025 3253 1025 2328 
Q 1025 1406 1450 917 
Q 1875 428 2675 428 
Q 3081 428 3442 575 
Q 3803 722 4122 1019 
L 4122 359 
Q 3791 134 3420 21 
Q 3050 -91 2638 -91 
Q 1578 -91 968 557 
Q 359 1206 359 2328 
Q 359 3453 968 4101 
Q 1578 4750 2638 4750 
Q 3056 4750 3426 4639 
Q 3797 4528 4122 4306 
z
" transform="scale(0.015625)"/>
       <path id="DejaVuSans-5d" d="M 1947 4863 
L 1947 -844 
L 622 -844 
L 622 -397 
L 1369 -397 
L 1369 4416 
L 622 4416 
L 622 4863 
L 1947 4863 
z
" transform="scale(0.015625)"/>
      </defs>
      <use xlink:href="#DejaVuSans-4d"/>
      <use xlink:href="#DejaVuSans-65" x="86.279297"/>
      <use xlink:href="#DejaVuSans-61" x="147.802734"/>
      <use xlink:href="#DejaVuSans-6e" x="209.082031"/>
      <use xlink:href="#DejaVuSans-20" x="272.460938"/>
      <use xlink:href="#DejaVuSans-52" x="304.248047"/>
      <use xlink:href="#DejaVuSans-4d" x="373.730469"/>
      <use xlink:href="#DejaVuSans-53" x="460.009766"/>
      <use xlink:href="#DejaVuSans-45" x="523.486328"/>
      <use xlink:href="#DejaVuSans-20" x="586.669922"/>
      <use xlink:href="#DejaVuSans-5b" x="618.457031"/>
      <use xlink:href="#DejaVuSans-43" x="657.470703"/>
      <use xlink:href="#DejaVuSans-70" x="727.294922"/>
      <use xlink:href="#DejaVuSans-5d" x="790.771484"/>
     </g>
    </g>
   </g>
   <g id="line2d_31">
    <path d="M 73.832727 53.568 
L 75.464157 159.324489 
L 77.095587 186.962326 
L 80.358447 216.390785 
L 81.989877 223.129597 
L 83.621307 236.229154 
L 85.252736 242.203713 
L 86.884166 246.811787 
L 88.515596 250.7477 
L 90.147026 253.921718 
L 91.778456 254.160759 
L 93.409886 259.359039 
L 95.041316 261.239739 
L 96.672746 261.021952 
L 101.567035 270.498578 
L 103.198465 267.932507 
L 104.829895 271.733285 
L 106.461325 272.274846 
L 108.092755 270.046579 
L 109.724185 272.199895 
L 111.355614 272.262234 
L 112.987044 274.241239 
L 114.618474 276.610615 
L 116.249904 275.613478 
L 117.881334 275.829678 
L 119.512764 272.283427 
L 121.144194 278.017533 
L 122.775624 277.002784 
L 124.407053 277.912044 
L 126.038483 279.22726 
L 127.669913 278.327534 
L 129.301343 279.289757 
L 130.932773 279.592316 
L 132.564203 280.217247 
L 134.195633 280.285327 
L 135.827063 276.082453 
L 137.458492 282.663124 
L 139.089922 281.37427 
L 140.721352 281.270637 
L 142.352782 282.867364 
L 143.984212 283.417953 
L 145.615642 279.755991 
L 147.247072 280.926009 
L 148.878502 283.879979 
L 150.509931 281.449564 
L 152.141361 282.986998 
L 153.772791 282.407288 
L 155.404221 283.180808 
L 157.035651 285.326267 
L 158.667081 285.39903 
L 160.298511 284.357515 
L 161.929941 283.707014 
L 163.56137 285.507781 
L 165.1928 284.563298 
L 166.82423 284.37102 
L 168.45566 286.368994 
L 170.08709 286.066648 
L 171.71852 286.963672 
L 173.34995 285.773318 
L 174.98138 287.875143 
L 176.61281 286.220226 
L 178.244239 287.559653 
L 179.875669 285.726837 
L 181.507099 284.97377 
L 183.138529 285.451897 
L 184.769959 288.060404 
L 186.401389 287.947929 
L 188.032819 286.779291 
L 189.664249 286.359448 
L 191.295678 287.566872 
L 192.927108 286.891601 
L 194.558538 287.873596 
L 196.189968 287.276032 
L 197.821398 289.03072 
L 201.084258 288.719487 
L 202.715688 289.101807 
L 204.347117 287.753463 
L 205.978547 288.883993 
L 207.609977 288.933554 
L 209.241407 288.752815 
L 210.872837 287.600063 
L 212.504267 287.751359 
L 214.135697 289.371105 
L 215.767127 290.383282 
L 217.398556 289.429978 
L 219.029986 290.18399 
L 220.661416 289.837184 
L 222.292846 290.519377 
L 223.924276 290.250391 
L 225.555706 289.835259 
L 227.187136 290.153633 
L 228.818566 290.881643 
L 230.449995 289.024099 
L 232.081425 290.984898 
L 235.344285 291.110705 
L 236.975715 290.146402 
L 238.607145 291.055288 
L 240.238575 289.79306 
L 241.870005 289.426398 
L 243.501434 291.663819 
L 245.132864 291.186508 
L 246.764294 291.736505 
L 248.395724 289.903971 
L 250.027154 291.740132 
L 251.658584 291.392242 
L 253.290014 290.823874 
L 254.921444 291.299806 
L 256.552873 292.243846 
L 258.184303 291.663142 
L 259.815733 292.010133 
L 261.447163 292.160226 
L 264.710023 291.598464 
L 267.972883 291.892648 
L 269.604312 291.616246 
L 271.235742 291.676101 
L 272.867172 291.610065 
L 274.498602 292.023314 
L 276.130032 292.710091 
L 277.761462 291.995422 
L 279.392892 293.008344 
L 281.024322 292.006331 
L 282.655751 292.59151 
L 284.287181 292.188637 
L 285.918611 292.477876 
L 287.550041 291.107262 
L 289.181471 292.07037 
L 290.812901 291.919796 
L 294.075761 293.561816 
L 295.70719 293.453021 
L 297.33862 292.652931 
L 298.97005 293.28786 
L 300.60148 291.840705 
L 302.23291 293.145536 
L 303.86434 293.334678 
L 305.49577 293.66421 
L 307.1272 293.065677 
L 308.75863 292.671853 
L 310.390059 293.534316 
L 312.021489 292.674719 
L 313.652919 293.137213 
L 315.284349 293.774721 
L 316.915779 293.699813 
L 318.547209 294.072413 
L 320.178639 293.444862 
L 321.810069 293.795208 
L 323.441498 293.235741 
L 325.072928 293.644873 
L 326.704358 293.585096 
L 328.335788 293.7306 
L 329.967218 293.05903 
L 331.598648 294.17788 
L 333.230078 294.051728 
L 334.861508 294.483897 
L 336.492937 293.581542 
L 338.124367 293.570147 
L 339.755797 293.938464 
L 341.387227 293.86196 
L 343.018657 293.652192 
L 344.650087 294.360672 
L 346.281517 294.153287 
L 347.912947 294.282376 
L 349.544376 294.606883 
L 351.175806 293.883277 
L 352.807236 294.41739 
L 354.438666 293.942145 
L 357.701526 294.451882 
L 360.964386 294.003163 
L 362.595815 294.428483 
L 364.227245 294.993691 
L 365.858675 294.018031 
L 367.490105 294.501293 
L 370.752965 294.93604 
L 372.384395 295.148138 
L 374.015825 295.032844 
L 375.647254 294.642376 
L 377.278684 294.413805 
L 378.910114 293.906799 
L 382.172974 294.527846 
L 383.804404 294.527726 
L 385.435834 294.674836 
L 387.067264 294.390047 
L 388.698693 295.299289 
L 390.330123 295.266643 
L 391.961553 294.908514 
L 393.592983 295.488 
L 395.224413 294.449582 
L 398.487273 295.324076 
L 398.487273 295.324076 
" clip-path="url(#p036459f294)" style="fill: none; stroke: #1f77b4; stroke-width: 1.5; stroke-linecap: square"/>
   </g>
   <g id="line2d_32">
    <path d="M 73.832727 72.850127 
L 75.464157 158.013941 
L 77.095587 142.270684 
L 80.358447 210.907508 
L 81.989877 205.763896 
L 83.621307 234.812743 
L 85.252736 249.038774 
L 86.884166 254.597101 
L 88.515596 252.436733 
L 90.147026 257.896965 
L 91.778456 252.301416 
L 93.409886 260.956179 
L 95.041316 267.916244 
L 96.672746 263.609149 
L 98.304175 267.703607 
L 99.935605 260.744437 
L 101.567035 273.608009 
L 103.198465 253.375195 
L 104.829895 278.298838 
L 106.461325 273.808636 
L 108.092755 265.921025 
L 109.724185 267.182122 
L 111.355614 274.847192 
L 112.987044 277.307972 
L 114.618474 274.604345 
L 116.249904 273.724984 
L 117.881334 264.494067 
L 119.512764 276.239109 
L 121.144194 280.822906 
L 122.775624 280.364999 
L 124.407053 279.627009 
L 126.038483 275.657102 
L 127.669913 282.275752 
L 129.301343 281.996838 
L 130.932773 283.045841 
L 132.564203 276.855778 
L 134.195633 277.055489 
L 135.827063 280.701625 
L 137.458492 282.506505 
L 139.089922 279.591419 
L 140.721352 282.304252 
L 142.352782 277.393622 
L 143.984212 276.84336 
L 145.615642 276.895319 
L 147.247072 284.582644 
L 148.878502 270.980014 
L 150.509931 283.274985 
L 152.141361 284.216242 
L 153.772791 283.302728 
L 155.404221 280.883223 
L 157.035651 283.033534 
L 158.667081 279.256799 
L 160.298511 282.162319 
L 161.929941 282.241119 
L 163.56137 282.966164 
L 165.1928 282.02167 
L 166.82423 284.08541 
L 168.45566 276.255177 
L 170.08709 286.476964 
L 171.71852 275.513088 
L 173.34995 279.811758 
L 174.98138 287.182432 
L 176.61281 283.800843 
L 178.244239 287.35291 
L 179.875669 283.019308 
L 181.507099 283.880278 
L 183.138529 286.810287 
L 184.769959 287.126763 
L 186.401389 288.151478 
L 188.032819 283.968981 
L 189.664249 285.630365 
L 191.295678 285.634715 
L 192.927108 278.001526 
L 194.558538 279.468553 
L 196.189968 286.535213 
L 197.821398 288.663537 
L 199.452828 286.633968 
L 201.084258 285.417696 
L 202.715688 288.644766 
L 204.347117 289.305948 
L 205.978547 284.710937 
L 207.609977 289.127028 
L 210.872837 280.668179 
L 212.504267 282.126249 
L 214.135697 287.255705 
L 215.767127 289.69577 
L 217.398556 287.488639 
L 219.029986 289.69816 
L 220.661416 290.648247 
L 222.292846 288.84611 
L 223.924276 291.706451 
L 225.555706 289.898888 
L 228.818566 287.565413 
L 230.449995 290.098758 
L 232.081425 288.723078 
L 233.712855 289.496674 
L 235.344285 288.956225 
L 236.975715 285.930657 
L 238.607145 290.955453 
L 240.238575 285.28414 
L 241.870005 291.211251 
L 243.501434 286.646182 
L 245.132864 289.086384 
L 246.764294 289.297158 
L 248.395724 289.740685 
L 250.027154 286.892396 
L 251.658584 289.744481 
L 253.290014 291.344122 
L 254.921444 290.576894 
L 256.552873 290.024364 
L 258.184303 291.141679 
L 259.815733 290.251012 
L 261.447163 288.638886 
L 263.078593 291.658421 
L 264.710023 287.450241 
L 266.341453 291.639502 
L 267.972883 291.126682 
L 269.604312 289.511648 
L 271.235742 290.709752 
L 272.867172 289.312912 
L 274.498602 290.418988 
L 276.130032 290.802372 
L 277.761462 291.563307 
L 279.392892 292.130912 
L 281.024322 289.957855 
L 282.655751 290.039974 
L 284.287181 291.274828 
L 285.918611 287.527697 
L 287.550041 290.817706 
L 289.181471 292.02164 
L 290.812901 284.884885 
L 292.444331 291.014815 
L 294.075761 291.004715 
L 295.70719 291.327095 
L 297.33862 289.839332 
L 298.97005 288.5971 
L 300.60148 288.7908 
L 302.23291 291.7465 
L 303.86434 292.22127 
L 305.49577 292.060674 
L 307.1272 290.706309 
L 308.75863 292.074133 
L 310.390059 292.007758 
L 312.021489 289.824579 
L 313.652919 290.551319 
L 315.284349 291.77756 
L 316.915779 291.081806 
L 320.178639 292.209716 
L 321.810069 290.110429 
L 323.441498 291.084598 
L 325.072928 292.387402 
L 326.704358 292.528445 
L 328.335788 291.870026 
L 329.967218 293.889862 
L 331.598648 290.507442 
L 333.230078 291.98126 
L 334.861508 291.936581 
L 336.492937 292.185269 
L 338.124367 293.595284 
L 339.755797 290.584483 
L 341.387227 290.398353 
L 343.018657 292.22427 
L 344.650087 291.655222 
L 346.281517 293.314944 
L 347.912947 293.117976 
L 351.175806 292.26204 
L 352.807236 292.318031 
L 354.438666 293.3289 
L 356.070096 290.321745 
L 357.701526 291.58675 
L 359.332956 292.320473 
L 360.964386 291.909449 
L 362.595815 291.348826 
L 364.227245 290.454208 
L 365.858675 291.229285 
L 367.490105 293.767035 
L 369.121535 293.250399 
L 370.752965 291.988255 
L 372.384395 291.437718 
L 374.015825 292.495554 
L 375.647254 293.324804 
L 377.278684 291.363292 
L 378.910114 294.24672 
L 380.541544 293.98534 
L 382.172974 292.280021 
L 383.804404 294.098973 
L 385.435834 294.03685 
L 387.067264 293.567341 
L 388.698693 292.977132 
L 390.330123 293.485107 
L 391.961553 293.230152 
L 393.592983 289.892614 
L 395.224413 292.499038 
L 396.855843 293.05167 
L 398.487273 294.007724 
L 398.487273 294.007724 
" clip-path="url(#p036459f294)" style="fill: none; stroke: #ff7f0e; stroke-width: 1.5; stroke-linecap: square"/>
   </g>
   <g id="patch_3">
    <path d="M 57.6 307.584 
L 57.6 41.472 
" style="fill: none; stroke: #000000; stroke-width: 0.8; stroke-linejoin: miter; stroke-linecap: square"/>
   </g>
   <g id="patch_4">
    <path d="M 414.72 307.584 
L 414.72 41.472 
" style="fill: none; stroke: #000000; stroke-width: 0.8; stroke-linejoin: miter; stroke-linecap: square"/>
   </g>
   <g id="patch_5">
    <path d="M 57.6 307.584 
L 414.72 307.584 
" style="fill: none; stroke: #000000; stroke-width: 0.8; stroke-linejoin: miter; stroke-linecap: square"/>
   </g>
   <g id="patch_6">
    <path d="M 57.6 41.472 
L 414.72 41.472 
" style="fill: none; stroke: #000000; stroke-width: 0.8; stroke-linejoin: miter; stroke-linecap: square"/>
   </g>
   <g id="legend_1">
    <g id="patch_7">
     <path d="M 336.579375 79.106375 
L 407.72 79.106375 
Q 409.72 79.106375 409.72 77.106375 
L 409.72 48.472 
Q 409.72 46.472 407.72 46.472 
L 336.579375 46.472 
Q 334.579375 46.472 334.579375 48.472 
L 334.579375 77.106375 
Q 334.579375 79.106375 336.579375 79.106375 
z
" style="fill: #ffffff; opacity: 0.8; stroke: #cccccc; stroke-linejoin: miter"/>
    </g>
    <g id="line2d_33">
     <path d="M 338.579375 54.570438 
L 348.579375 54.570438 
L 358.579375 54.570438 
" style="fill: none; stroke: #1f77b4; stroke-width: 1.5; stroke-linecap: square"/>
    </g>
    <g id="text_18">
     <!-- loss -->
     <g transform="translate(366.579375 58.070438) scale(0.1 -0.1)">
      <defs>
       <path id="DejaVuSans-6c" d="M 603 4863 
L 1178 4863 
L 1178 0 
L 603 0 
L 603 4863 
z
" transform="scale(0.015625)"/>
       <path id="DejaVuSans-73" d="M 2834 3397 
L 2834 2853 
Q 2591 2978 2328 3040 
Q 2066 3103 1784 3103 
Q 1356 3103 1142 2972 
Q 928 2841 928 2578 
Q 928 2378 1081 2264 
Q 1234 2150 1697 2047 
L 1894 2003 
Q 2506 1872 2764 1633 
Q 3022 1394 3022 966 
Q 3022 478 2636 193 
Q 2250 -91 1575 -91 
Q 1294 -91 989 -36 
Q 684 19 347 128 
L 347 722 
Q 666 556 975 473 
Q 1284 391 1588 391 
Q 1994 391 2212 530 
Q 2431 669 2431 922 
Q 2431 1156 2273 1281 
Q 2116 1406 1581 1522 
L 1381 1569 
Q 847 1681 609 1914 
Q 372 2147 372 2553 
Q 372 3047 722 3315 
Q 1072 3584 1716 3584 
Q 2034 3584 2315 3537 
Q 2597 3491 2834 3397 
z
" transform="scale(0.015625)"/>
      </defs>
      <use xlink:href="#DejaVuSans-6c"/>
      <use xlink:href="#DejaVuSans-6f" x="27.783203"/>
      <use xlink:href="#DejaVuSans-73" x="88.964844"/>
      <use xlink:href="#DejaVuSans-73" x="141.064453"/>
     </g>
    </g>
    <g id="line2d_34">
     <path d="M 338.579375 69.248563 
L 348.579375 69.248563 
L 358.579375 69.248563 
" style="fill: none; stroke: #ff7f0e; stroke-width: 1.5; stroke-linecap: square"/>
    </g>
    <g id="text_19">
     <!-- val_loss -->
     <g transform="translate(366.579375 72.748563) scale(0.1 -0.1)">
      <defs>
       <path id="DejaVuSans-76" d="M 191 3500 
L 800 3500 
L 1894 563 
L 2988 3500 
L 3597 3500 
L 2284 0 
L 1503 0 
L 191 3500 
z
" transform="scale(0.015625)"/>
       <path id="DejaVuSans-5f" d="M 3263 -1063 
L 3263 -1509 
L -63 -1509 
L -63 -1063 
L 3263 -1063 
z
" transform="scale(0.015625)"/>
      </defs>
      <use xlink:href="#DejaVuSans-76"/>
      <use xlink:href="#DejaVuSans-61" x="59.179688"/>
      <use xlink:href="#DejaVuSans-6c" x="120.458984"/>
      <use xlink:href="#DejaVuSans-5f" x="148.242188"/>
      <use xlink:href="#DejaVuSans-6c" x="198.242188"/>
      <use xlink:href="#DejaVuSans-6f" x="226.025391"/>
      <use xlink:href="#DejaVuSans-73" x="287.207031"/>
      <use xlink:href="#DejaVuSans-73" x="339.306641"/>
     </g>
    </g>
   </g>
  </g>
 </g>
 <defs>
  <clipPath id="p036459f294">
   <rect x="57.6" y="41.472" width="357.12" height="266.112"/>
  </clipPath>
 </defs>
</svg>
