<?xml version="1.0" encoding="utf-8" standalone="no"?>
<!DOCTYPE svg PUBLIC "-//W3C//DTD SVG 1.1//EN"
  "http://www.w3.org/Graphics/SVG/1.1/DTD/svg11.dtd">
<svg xmlns:xlink="http://www.w3.org/1999/xlink" width="460.8pt" height="345.6pt" viewBox="0 0 460.8 345.6" xmlns="http://www.w3.org/2000/svg" version="1.1">
 <metadata>
  <rdf:RDF xmlns:dc="http://purl.org/dc/elements/1.1/" xmlns:cc="http://creativecommons.org/ns#" xmlns:rdf="http://www.w3.org/1999/02/22-rdf-syntax-ns#">
   <cc:Work>
    <dc:type rdf:resource="http://purl.org/dc/dcmitype/StillImage"/>
    <dc:date>2023-02-23T13:07:29.819390</dc:date>
    <dc:format>image/svg+xml</dc:format>
    <dc:creator>
     <cc:Agent>
      <dc:title>Matplotlib v3.6.3, https://matplotlib.org/</dc:title>
     </cc:Agent>
    </dc:creator>
   </cc:Work>
  </rdf:RDF>
 </metadata>
 <defs>
  <style type="text/css">*{stroke-linejoin: round; stroke-linecap: butt}</style>
 </defs>
 <g id="figure_1">
  <g id="patch_1">
   <path d="M 0 345.6 
L 460.8 345.6 
L 460.8 0 
L 0 0 
z
" style="fill: #ffffff"/>
  </g>
  <g id="axes_1">
   <g id="patch_2">
    <path d="M 103.104 307.584 
L 369.216 307.584 
L 369.216 41.472 
L 103.104 41.472 
z
" style="fill: #ffffff"/>
   </g>
   <g id="PathCollection_1">
    <defs>
     <path id="m3ef67fda2a" d="M 0 3 
C 0.795609 3 1.55874 2.683901 2.12132 2.12132 
C 2.683901 1.55874 3 0.795609 3 0 
C 3 -0.795609 2.683901 -1.55874 2.12132 -2.12132 
C 1.55874 -2.683901 0.795609 -3 0 -3 
C -0.795609 -3 -1.55874 -2.683901 -2.12132 -2.12132 
C -2.683901 -1.55874 -3 -0.795609 -3 0 
C -3 0.795609 -2.683901 1.55874 -2.12132 2.12132 
C -1.55874 2.683901 -0.795609 3 0 3 
z
" style="stroke: #1f77b4"/>
    </defs>
    <g clip-path="url(#p712f58c2b6)">
     <use xlink:href="#m3ef67fda2a" x="381.906304" y="28.939004" style="fill: #1f77b4; stroke: #1f77b4"/>
     <use xlink:href="#m3ef67fda2a" x="354.876928" y="56.472691" style="fill: #1f77b4; stroke: #1f77b4"/>
     <use xlink:href="#m3ef67fda2a" x="343.546752" y="68.205553" style="fill: #1f77b4; stroke: #1f77b4"/>
     <use xlink:href="#m3ef67fda2a" x="334.810112" y="76.486662" style="fill: #1f77b4; stroke: #1f77b4"/>
     <use xlink:href="#m3ef67fda2a" x="327.70816" y="84.021519" style="fill: #1f77b4; stroke: #1f77b4"/>
     <use xlink:href="#m3ef67fda2a" x="321.529856" y="89.568171" style="fill: #1f77b4; stroke: #1f77b4"/>
     <use xlink:href="#m3ef67fda2a" x="316.002048" y="95.624676" style="fill: #1f77b4; stroke: #1f77b4"/>
     <use xlink:href="#m3ef67fda2a" x="310.971264" y="101.765915" style="fill: #1f77b4; stroke: #1f77b4"/>
     <use xlink:href="#m3ef67fda2a" x="306.3488" y="104.674688" style="fill: #1f77b4; stroke: #1f77b4"/>
     <use xlink:href="#m3ef67fda2a" x="302.064256" y="109.646395" style="fill: #1f77b4; stroke: #1f77b4"/>
     <use xlink:href="#m3ef67fda2a" x="298.030336" y="113.434462" style="fill: #1f77b4; stroke: #1f77b4"/>
     <use xlink:href="#m3ef67fda2a" x="294.201984" y="117.752871" style="fill: #1f77b4; stroke: #1f77b4"/>
     <use xlink:href="#m3ef67fda2a" x="290.538368" y="121.787759" style="fill: #1f77b4; stroke: #1f77b4"/>
     <use xlink:href="#m3ef67fda2a" x="286.998656" y="124.487629" style="fill: #1f77b4; stroke: #1f77b4"/>
     <use xlink:href="#m3ef67fda2a" x="283.572992" y="128.230025" style="fill: #1f77b4; stroke: #1f77b4"/>
     <use xlink:href="#m3ef67fda2a" x="280.20224" y="130.953199" style="fill: #1f77b4; stroke: #1f77b4"/>
     <use xlink:href="#m3ef67fda2a" x="276.903296" y="134.495628" style="fill: #1f77b4; stroke: #1f77b4"/>
     <use xlink:href="#m3ef67fda2a" x="273.657856" y="137.181469" style="fill: #1f77b4; stroke: #1f77b4"/>
     <use xlink:href="#m3ef67fda2a" x="270.401152" y="140.510917" style="fill: #1f77b4; stroke: #1f77b4"/>
     <use xlink:href="#m3ef67fda2a" x="267.189504" y="144.289704" style="fill: #1f77b4; stroke: #1f77b4"/>
     <use xlink:href="#m3ef67fda2a" x="263.95392" y="147.326714" style="fill: #1f77b4; stroke: #1f77b4"/>
     <use xlink:href="#m3ef67fda2a" x="260.690176" y="150.117635" style="fill: #1f77b4; stroke: #1f77b4"/>
     <use xlink:href="#m3ef67fda2a" x="257.465856" y="153.9639" style="fill: #1f77b4; stroke: #1f77b4"/>
     <use xlink:href="#m3ef67fda2a" x="254.158464" y="157.684473" style="fill: #1f77b4; stroke: #1f77b4"/>
     <use xlink:href="#m3ef67fda2a" x="250.83136" y="160.448367" style="fill: #1f77b4; stroke: #1f77b4"/>
     <use xlink:href="#m3ef67fda2a" x="247.467648" y="164.154094" style="fill: #1f77b4; stroke: #1f77b4"/>
     <use xlink:href="#m3ef67fda2a" x="244.054656" y="167.156704" style="fill: #1f77b4; stroke: #1f77b4"/>
     <use xlink:href="#m3ef67fda2a" x="240.585344" y="171.288124" style="fill: #1f77b4; stroke: #1f77b4"/>
     <use xlink:href="#m3ef67fda2a" x="237.065344" y="173.815299" style="fill: #1f77b4; stroke: #1f77b4"/>
     <use xlink:href="#m3ef67fda2a" x="233.476352" y="178.709347" style="fill: #1f77b4; stroke: #1f77b4"/>
     <use xlink:href="#m3ef67fda2a" x="229.812736" y="182.338998" style="fill: #1f77b4; stroke: #1f77b4"/>
     <use xlink:href="#m3ef67fda2a" x="226.097024" y="185.719674" style="fill: #1f77b4; stroke: #1f77b4"/>
     <use xlink:href="#m3ef67fda2a" x="222.29824" y="189.275103" style="fill: #1f77b4; stroke: #1f77b4"/>
     <use xlink:href="#m3ef67fda2a" x="218.416384" y="193.087236" style="fill: #1f77b4; stroke: #1f77b4"/>
     <use xlink:href="#m3ef67fda2a" x="214.486656" y="196.56131" style="fill: #1f77b4; stroke: #1f77b4"/>
     <use xlink:href="#m3ef67fda2a" x="210.423168" y="200.467673" style="fill: #1f77b4; stroke: #1f77b4"/>
     <use xlink:href="#m3ef67fda2a" x="206.32448" y="205.491677" style="fill: #1f77b4; stroke: #1f77b4"/>
     <use xlink:href="#m3ef67fda2a" x="202.10752" y="209.039586" style="fill: #1f77b4; stroke: #1f77b4"/>
     <use xlink:href="#m3ef67fda2a" x="197.8272" y="213.675184" style="fill: #1f77b4; stroke: #1f77b4"/>
     <use xlink:href="#m3ef67fda2a" x="193.44128" y="217.116855" style="fill: #1f77b4; stroke: #1f77b4"/>
     <use xlink:href="#m3ef67fda2a" x="188.937088" y="222.019061" style="fill: #1f77b4; stroke: #1f77b4"/>
     <use xlink:href="#m3ef67fda2a" x="184.399104" y="227.036728" style="fill: #1f77b4; stroke: #1f77b4"/>
     <use xlink:href="#m3ef67fda2a" x="179.732992" y="230.529634" style="fill: #1f77b4; stroke: #1f77b4"/>
     <use xlink:href="#m3ef67fda2a" x="174.985216" y="235.362461" style="fill: #1f77b4; stroke: #1f77b4"/>
     <use xlink:href="#m3ef67fda2a" x="170.164224" y="240.695906" style="fill: #1f77b4; stroke: #1f77b4"/>
     <use xlink:href="#m3ef67fda2a" x="165.241856" y="244.510743" style="fill: #1f77b4; stroke: #1f77b4"/>
     <use xlink:href="#m3ef67fda2a" x="160.242048" y="249.356896" style="fill: #1f77b4; stroke: #1f77b4"/>
     <use xlink:href="#m3ef67fda2a" x="155.253504" y="254.428585" style="fill: #1f77b4; stroke: #1f77b4"/>
     <use xlink:href="#m3ef67fda2a" x="150.233984" y="260.388099" style="fill: #1f77b4; stroke: #1f77b4"/>
     <use xlink:href="#m3ef67fda2a" x="145.236992" y="265.809244" style="fill: #1f77b4; stroke: #1f77b4"/>
     <use xlink:href="#m3ef67fda2a" x="140.278016" y="270.798571" style="fill: #1f77b4; stroke: #1f77b4"/>
     <use xlink:href="#m3ef67fda2a" x="135.548544" y="275.672301" style="fill: #1f77b4; stroke: #1f77b4"/>
     <use xlink:href="#m3ef67fda2a" x="130.845824" y="281.186635" style="fill: #1f77b4; stroke: #1f77b4"/>
     <use xlink:href="#m3ef67fda2a" x="126.512" y="287.049033" style="fill: #1f77b4; stroke: #1f77b4"/>
     <use xlink:href="#m3ef67fda2a" x="122.254208" y="290.965584" style="fill: #1f77b4; stroke: #1f77b4"/>
     <use xlink:href="#m3ef67fda2a" x="118.432896" y="295.408402" style="fill: #1f77b4; stroke: #1f77b4"/>
     <use xlink:href="#m3ef67fda2a" x="114.793216" y="299.513881" style="fill: #1f77b4; stroke: #1f77b4"/>
     <use xlink:href="#m3ef67fda2a" x="111.623808" y="302.310862" style="fill: #1f77b4; stroke: #1f77b4"/>
     <use xlink:href="#m3ef67fda2a" x="108.902144" y="306.359844" style="fill: #1f77b4; stroke: #1f77b4"/>
     <use xlink:href="#m3ef67fda2a" x="106.732416" y="308.922863" style="fill: #1f77b4; stroke: #1f77b4"/>
     <use xlink:href="#m3ef67fda2a" x="105.092096" y="311.906102" style="fill: #1f77b4; stroke: #1f77b4"/>
     <use xlink:href="#m3ef67fda2a" x="104.499328" y="313.051001" style="fill: #1f77b4; stroke: #1f77b4"/>
     <use xlink:href="#m3ef67fda2a" x="104.658432" y="313.598752" style="fill: #1f77b4; stroke: #1f77b4"/>
     <use xlink:href="#m3ef67fda2a" x="106.302976" y="310.847829" style="fill: #1f77b4; stroke: #1f77b4"/>
     <use xlink:href="#m3ef67fda2a" x="109.331584" y="310.911309" style="fill: #1f77b4; stroke: #1f77b4"/>
     <use xlink:href="#m3ef67fda2a" x="114.335616" y="305.113985" style="fill: #1f77b4; stroke: #1f77b4"/>
     <use xlink:href="#m3ef67fda2a" x="121.892352" y="296.667772" style="fill: #1f77b4; stroke: #1f77b4"/>
     <use xlink:href="#m3ef67fda2a" x="132.090496" y="287.634298" style="fill: #1f77b4; stroke: #1f77b4"/>
     <use xlink:href="#m3ef67fda2a" x="146.015616" y="275.356044" style="fill: #1f77b4; stroke: #1f77b4"/>
     <use xlink:href="#m3ef67fda2a" x="163.83104" y="257.882265" style="fill: #1f77b4; stroke: #1f77b4"/>
     <use xlink:href="#m3ef67fda2a" x="185.778944" y="236.112299" style="fill: #1f77b4; stroke: #1f77b4"/>
     <use xlink:href="#m3ef67fda2a" x="212.048" y="209.90779" style="fill: #1f77b4; stroke: #1f77b4"/>
     <use xlink:href="#m3ef67fda2a" x="241.680768" y="179.280706" style="fill: #1f77b4; stroke: #1f77b4"/>
     <use xlink:href="#m3ef67fda2a" x="274.052096" y="146.634006" style="fill: #1f77b4; stroke: #1f77b4"/>
     <use xlink:href="#m3ef67fda2a" x="306.76416" y="112.15026" style="fill: #1f77b4; stroke: #1f77b4"/>
     <use xlink:href="#m3ef67fda2a" x="338.660992" y="79.166403" style="fill: #1f77b4; stroke: #1f77b4"/>
     <use xlink:href="#m3ef67fda2a" x="367.630592" y="50.742472" style="fill: #1f77b4; stroke: #1f77b4"/>
     <use xlink:href="#m3ef67fda2a" x="393.530752" y="24.478541" style="fill: #1f77b4; stroke: #1f77b4"/>
     <use xlink:href="#m3ef67fda2a" x="415.761664" y="1.496" style="fill: #1f77b4; stroke: #1f77b4"/>
     <use xlink:href="#m3ef67fda2a" x="418.102665" y="-1" style="fill: #1f77b4; stroke: #1f77b4"/>
     <use xlink:href="#m3ef67fda2a" x="410.695074" y="-1" style="fill: #1f77b4; stroke: #1f77b4"/>
     <use xlink:href="#m3ef67fda2a" x="409.176448" y="0.640704" style="fill: #1f77b4; stroke: #1f77b4"/>
     <use xlink:href="#m3ef67fda2a" x="400.427136" y="9.481566" style="fill: #1f77b4; stroke: #1f77b4"/>
     <use xlink:href="#m3ef67fda2a" x="391.825664" y="18.253091" style="fill: #1f77b4; stroke: #1f77b4"/>
     <use xlink:href="#m3ef67fda2a" x="383.625472" y="25.542295" style="fill: #1f77b4; stroke: #1f77b4"/>
     <use xlink:href="#m3ef67fda2a" x="375.632256" y="33.918029" style="fill: #1f77b4; stroke: #1f77b4"/>
     <use xlink:href="#m3ef67fda2a" x="368.031872" y="42.375659" style="fill: #1f77b4; stroke: #1f77b4"/>
     <use xlink:href="#m3ef67fda2a" x="360.806016" y="48.350766" style="fill: #1f77b4; stroke: #1f77b4"/>
     <use xlink:href="#m3ef67fda2a" x="353.913856" y="56.377866" style="fill: #1f77b4; stroke: #1f77b4"/>
     <use xlink:href="#m3ef67fda2a" x="347.418752" y="62.948696" style="fill: #1f77b4; stroke: #1f77b4"/>
     <use xlink:href="#m3ef67fda2a" x="341.271424" y="69.009843" style="fill: #1f77b4; stroke: #1f77b4"/>
     <use xlink:href="#m3ef67fda2a" x="335.57184" y="74.16842" style="fill: #1f77b4; stroke: #1f77b4"/>
     <use xlink:href="#m3ef67fda2a" x="330.274944" y="79.614944" style="fill: #1f77b4; stroke: #1f77b4"/>
     <use xlink:href="#m3ef67fda2a" x="325.486336" y="84.231375" style="fill: #1f77b4; stroke: #1f77b4"/>
     <use xlink:href="#m3ef67fda2a" x="321.14688" y="89.165158" style="fill: #1f77b4; stroke: #1f77b4"/>
     <use xlink:href="#m3ef67fda2a" x="317.326976" y="92.827576" style="fill: #1f77b4; stroke: #1f77b4"/>
     <use xlink:href="#m3ef67fda2a" x="314.035072" y="95.393823" style="fill: #1f77b4; stroke: #1f77b4"/>
     <use xlink:href="#m3ef67fda2a" x="311.247232" y="99.470453" style="fill: #1f77b4; stroke: #1f77b4"/>
     <use xlink:href="#m3ef67fda2a" x="308.950784" y="100.887923" style="fill: #1f77b4; stroke: #1f77b4"/>
     <use xlink:href="#m3ef67fda2a" x="307.100672" y="103.226941" style="fill: #1f77b4; stroke: #1f77b4"/>
     <use xlink:href="#m3ef67fda2a" x="305.627904" y="104.369942" style="fill: #1f77b4; stroke: #1f77b4"/>
     <use xlink:href="#m3ef67fda2a" x="304.521216" y="105.597434" style="fill: #1f77b4; stroke: #1f77b4"/>
     <use xlink:href="#m3ef67fda2a" x="303.762304" y="106.163542" style="fill: #1f77b4; stroke: #1f77b4"/>
     <use xlink:href="#m3ef67fda2a" x="303.217408" y="106.989448" style="fill: #1f77b4; stroke: #1f77b4"/>
     <use xlink:href="#m3ef67fda2a" x="302.932992" y="107.783151" style="fill: #1f77b4; stroke: #1f77b4"/>
     <use xlink:href="#m3ef67fda2a" x="302.845696" y="107.906363" style="fill: #1f77b4; stroke: #1f77b4"/>
     <use xlink:href="#m3ef67fda2a" x="302.931584" y="107.682017" style="fill: #1f77b4; stroke: #1f77b4"/>
     <use xlink:href="#m3ef67fda2a" x="303.148416" y="107.643603" style="fill: #1f77b4; stroke: #1f77b4"/>
     <use xlink:href="#m3ef67fda2a" x="303.510272" y="106.794574" style="fill: #1f77b4; stroke: #1f77b4"/>
     <use xlink:href="#m3ef67fda2a" x="303.952384" y="106.607863" style="fill: #1f77b4; stroke: #1f77b4"/>
     <use xlink:href="#m3ef67fda2a" x="304.494464" y="106.612905" style="fill: #1f77b4; stroke: #1f77b4"/>
     <use xlink:href="#m3ef67fda2a" x="305.13088" y="105.161745" style="fill: #1f77b4; stroke: #1f77b4"/>
     <use xlink:href="#m3ef67fda2a" x="305.791232" y="104.658997" style="fill: #1f77b4; stroke: #1f77b4"/>
     <use xlink:href="#m3ef67fda2a" x="306.512128" y="104.455488" style="fill: #1f77b4; stroke: #1f77b4"/>
     <use xlink:href="#m3ef67fda2a" x="307.2992" y="104.086055" style="fill: #1f77b4; stroke: #1f77b4"/>
     <use xlink:href="#m3ef67fda2a" x="308.103168" y="102.162368" style="fill: #1f77b4; stroke: #1f77b4"/>
     <use xlink:href="#m3ef67fda2a" x="308.93248" y="101.317949" style="fill: #1f77b4; stroke: #1f77b4"/>
     <use xlink:href="#m3ef67fda2a" x="309.81248" y="101.126661" style="fill: #1f77b4; stroke: #1f77b4"/>
     <use xlink:href="#m3ef67fda2a" x="310.66432" y="99.153965" style="fill: #1f77b4; stroke: #1f77b4"/>
     <use xlink:href="#m3ef67fda2a" x="311.585152" y="99.554108" style="fill: #1f77b4; stroke: #1f77b4"/>
     <use xlink:href="#m3ef67fda2a" x="312.510208" y="98.283062" style="fill: #1f77b4; stroke: #1f77b4"/>
     <use xlink:href="#m3ef67fda2a" x="313.433856" y="97.215577" style="fill: #1f77b4; stroke: #1f77b4"/>
     <use xlink:href="#m3ef67fda2a" x="314.380032" y="96.094821" style="fill: #1f77b4; stroke: #1f77b4"/>
     <use xlink:href="#m3ef67fda2a" x="315.36704" y="95.386135" style="fill: #1f77b4; stroke: #1f77b4"/>
     <use xlink:href="#m3ef67fda2a" x="316.325888" y="94.523835" style="fill: #1f77b4; stroke: #1f77b4"/>
     <use xlink:href="#m3ef67fda2a" x="317.35936" y="93.316084" style="fill: #1f77b4; stroke: #1f77b4"/>
     <use xlink:href="#m3ef67fda2a" x="318.4224" y="92.4939" style="fill: #1f77b4; stroke: #1f77b4"/>
     <use xlink:href="#m3ef67fda2a" x="319.491072" y="91.542337" style="fill: #1f77b4; stroke: #1f77b4"/>
     <use xlink:href="#m3ef67fda2a" x="320.621696" y="89.324346" style="fill: #1f77b4; stroke: #1f77b4"/>
     <use xlink:href="#m3ef67fda2a" x="321.833984" y="88.307748" style="fill: #1f77b4; stroke: #1f77b4"/>
     <use xlink:href="#m3ef67fda2a" x="323.09696" y="86.997586" style="fill: #1f77b4; stroke: #1f77b4"/>
     <use xlink:href="#m3ef67fda2a" x="324.482432" y="86.002828" style="fill: #1f77b4; stroke: #1f77b4"/>
     <use xlink:href="#m3ef67fda2a" x="325.960832" y="84.281189" style="fill: #1f77b4; stroke: #1f77b4"/>
     <use xlink:href="#m3ef67fda2a" x="327.636352" y="82.29411" style="fill: #1f77b4; stroke: #1f77b4"/>
     <use xlink:href="#m3ef67fda2a" x="329.46816" y="80.698298" style="fill: #1f77b4; stroke: #1f77b4"/>
     <use xlink:href="#m3ef67fda2a" x="331.582976" y="78.155666" style="fill: #1f77b4; stroke: #1f77b4"/>
     <use xlink:href="#m3ef67fda2a" x="334.062464" y="76.036299" style="fill: #1f77b4; stroke: #1f77b4"/>
     <use xlink:href="#m3ef67fda2a" x="336.919296" y="73.292527" style="fill: #1f77b4; stroke: #1f77b4"/>
     <use xlink:href="#m3ef67fda2a" x="340.40128" y="69.900056" style="fill: #1f77b4; stroke: #1f77b4"/>
     <use xlink:href="#m3ef67fda2a" x="344.739328" y="65.695708" style="fill: #1f77b4; stroke: #1f77b4"/>
     <use xlink:href="#m3ef67fda2a" x="350.540288" y="59.64224" style="fill: #1f77b4; stroke: #1f77b4"/>
     <use xlink:href="#m3ef67fda2a" x="358.98688" y="51.781678" style="fill: #1f77b4; stroke: #1f77b4"/>
     <use xlink:href="#m3ef67fda2a" x="381.906304" y="29.071938" style="fill: #1f77b4; stroke: #1f77b4"/>
    </g>
   </g>
   <g id="matplotlib.axis_1">
    <g id="xtick_1">
     <g id="line2d_1">
      <defs>
       <path id="mc09ed48ab0" d="M 0 0 
L 0 3.5 
" style="stroke: #000000; stroke-width: 0.8"/>
      </defs>
      <g>
       <use xlink:href="#mc09ed48ab0" x="103.104" y="307.584" style="stroke: #000000; stroke-width: 0.8"/>
      </g>
     </g>
     <g id="text_1">
      <!-- −1.50 -->
      <g transform="translate(87.781344 322.182437) scale(0.1 -0.1)">
       <defs>
        <path id="DejaVuSans-2212" d="M 678 2272 
L 4684 2272 
L 4684 1741 
L 678 1741 
L 678 2272 
z
" transform="scale(0.015625)"/>
        <path id="DejaVuSans-31" d="M 794 531 
L 1825 531 
L 1825 4091 
L 703 3866 
L 703 4441 
L 1819 4666 
L 2450 4666 
L 2450 531 
L 3481 531 
L 3481 0 
L 794 0 
L 794 531 
z
" transform="scale(0.015625)"/>
        <path id="DejaVuSans-2e" d="M 684 794 
L 1344 794 
L 1344 0 
L 684 0 
L 684 794 
z
" transform="scale(0.015625)"/>
        <path id="DejaVuSans-35" d="M 691 4666 
L 3169 4666 
L 3169 4134 
L 1269 4134 
L 1269 2991 
Q 1406 3038 1543 3061 
Q 1681 3084 1819 3084 
Q 2600 3084 3056 2656 
Q 3513 2228 3513 1497 
Q 3513 744 3044 326 
Q 2575 -91 1722 -91 
Q 1428 -91 1123 -41 
Q 819 9 494 109 
L 494 744 
Q 775 591 1075 516 
Q 1375 441 1709 441 
Q 2250 441 2565 725 
Q 2881 1009 2881 1497 
Q 2881 1984 2565 2268 
Q 2250 2553 1709 2553 
Q 1456 2553 1204 2497 
Q 953 2441 691 2322 
L 691 4666 
z
" transform="scale(0.015625)"/>
        <path id="DejaVuSans-30" d="M 2034 4250 
Q 1547 4250 1301 3770 
Q 1056 3291 1056 2328 
Q 1056 1369 1301 889 
Q 1547 409 2034 409 
Q 2525 409 2770 889 
Q 3016 1369 3016 2328 
Q 3016 3291 2770 3770 
Q 2525 4250 2034 4250 
z
M 2034 4750 
Q 2819 4750 3233 4129 
Q 3647 3509 3647 2328 
Q 3647 1150 3233 529 
Q 2819 -91 2034 -91 
Q 1250 -91 836 529 
Q 422 1150 422 2328 
Q 422 3509 836 4129 
Q 1250 4750 2034 4750 
z
" transform="scale(0.015625)"/>
       </defs>
       <use xlink:href="#DejaVuSans-2212"/>
       <use xlink:href="#DejaVuSans-31" x="83.789062"/>
       <use xlink:href="#DejaVuSans-2e" x="147.412109"/>
       <use xlink:href="#DejaVuSans-35" x="179.199219"/>
       <use xlink:href="#DejaVuSans-30" x="242.822266"/>
      </g>
     </g>
    </g>
    <g id="xtick_2">
     <g id="line2d_2">
      <g>
       <use xlink:href="#mc09ed48ab0" x="138.304" y="307.584" style="stroke: #000000; stroke-width: 0.8"/>
      </g>
     </g>
     <g id="text_2">
      <!-- −1.25 -->
      <g transform="translate(122.981344 322.182437) scale(0.1 -0.1)">
       <defs>
        <path id="DejaVuSans-32" d="M 1228 531 
L 3431 531 
L 3431 0 
L 469 0 
L 469 531 
Q 828 903 1448 1529 
Q 2069 2156 2228 2338 
Q 2531 2678 2651 2914 
Q 2772 3150 2772 3378 
Q 2772 3750 2511 3984 
Q 2250 4219 1831 4219 
Q 1534 4219 1204 4116 
Q 875 4013 500 3803 
L 500 4441 
Q 881 4594 1212 4672 
Q 1544 4750 1819 4750 
Q 2544 4750 2975 4387 
Q 3406 4025 3406 3419 
Q 3406 3131 3298 2873 
Q 3191 2616 2906 2266 
Q 2828 2175 2409 1742 
Q 1991 1309 1228 531 
z
" transform="scale(0.015625)"/>
       </defs>
       <use xlink:href="#DejaVuSans-2212"/>
       <use xlink:href="#DejaVuSans-31" x="83.789062"/>
       <use xlink:href="#DejaVuSans-2e" x="147.412109"/>
       <use xlink:href="#DejaVuSans-32" x="179.199219"/>
       <use xlink:href="#DejaVuSans-35" x="242.822266"/>
      </g>
     </g>
    </g>
    <g id="xtick_3">
     <g id="line2d_3">
      <g>
       <use xlink:href="#mc09ed48ab0" x="173.504" y="307.584" style="stroke: #000000; stroke-width: 0.8"/>
      </g>
     </g>
     <g id="text_3">
      <!-- −1.00 -->
      <g transform="translate(158.181344 322.182437) scale(0.1 -0.1)">
       <use xlink:href="#DejaVuSans-2212"/>
       <use xlink:href="#DejaVuSans-31" x="83.789062"/>
       <use xlink:href="#DejaVuSans-2e" x="147.412109"/>
       <use xlink:href="#DejaVuSans-30" x="179.199219"/>
       <use xlink:href="#DejaVuSans-30" x="242.822266"/>
      </g>
     </g>
    </g>
    <g id="xtick_4">
     <g id="line2d_4">
      <g>
       <use xlink:href="#mc09ed48ab0" x="208.704" y="307.584" style="stroke: #000000; stroke-width: 0.8"/>
      </g>
     </g>
     <g id="text_4">
      <!-- −0.75 -->
      <g transform="translate(193.381344 322.182437) scale(0.1 -0.1)">
       <defs>
        <path id="DejaVuSans-37" d="M 525 4666 
L 3525 4666 
L 3525 4397 
L 1831 0 
L 1172 0 
L 2766 4134 
L 525 4134 
L 525 4666 
z
" transform="scale(0.015625)"/>
       </defs>
       <use xlink:href="#DejaVuSans-2212"/>
       <use xlink:href="#DejaVuSans-30" x="83.789062"/>
       <use xlink:href="#DejaVuSans-2e" x="147.412109"/>
       <use xlink:href="#DejaVuSans-37" x="179.199219"/>
       <use xlink:href="#DejaVuSans-35" x="242.822266"/>
      </g>
     </g>
    </g>
    <g id="xtick_5">
     <g id="line2d_5">
      <g>
       <use xlink:href="#mc09ed48ab0" x="243.904" y="307.584" style="stroke: #000000; stroke-width: 0.8"/>
      </g>
     </g>
     <g id="text_5">
      <!-- −0.50 -->
      <g transform="translate(228.581344 322.182437) scale(0.1 -0.1)">
       <use xlink:href="#DejaVuSans-2212"/>
       <use xlink:href="#DejaVuSans-30" x="83.789062"/>
       <use xlink:href="#DejaVuSans-2e" x="147.412109"/>
       <use xlink:href="#DejaVuSans-35" x="179.199219"/>
       <use xlink:href="#DejaVuSans-30" x="242.822266"/>
      </g>
     </g>
    </g>
    <g id="xtick_6">
     <g id="line2d_6">
      <g>
       <use xlink:href="#mc09ed48ab0" x="279.104" y="307.584" style="stroke: #000000; stroke-width: 0.8"/>
      </g>
     </g>
     <g id="text_6">
      <!-- −0.25 -->
      <g transform="translate(263.781344 322.182437) scale(0.1 -0.1)">
       <use xlink:href="#DejaVuSans-2212"/>
       <use xlink:href="#DejaVuSans-30" x="83.789062"/>
       <use xlink:href="#DejaVuSans-2e" x="147.412109"/>
       <use xlink:href="#DejaVuSans-32" x="179.199219"/>
       <use xlink:href="#DejaVuSans-35" x="242.822266"/>
      </g>
     </g>
    </g>
    <g id="xtick_7">
     <g id="line2d_7">
      <g>
       <use xlink:href="#mc09ed48ab0" x="314.304" y="307.584" style="stroke: #000000; stroke-width: 0.8"/>
      </g>
     </g>
     <g id="text_7">
      <!-- 0.00 -->
      <g transform="translate(303.171187 322.182437) scale(0.1 -0.1)">
       <use xlink:href="#DejaVuSans-30"/>
       <use xlink:href="#DejaVuSans-2e" x="63.623047"/>
       <use xlink:href="#DejaVuSans-30" x="95.410156"/>
       <use xlink:href="#DejaVuSans-30" x="159.033203"/>
      </g>
     </g>
    </g>
    <g id="xtick_8">
     <g id="line2d_8">
      <g>
       <use xlink:href="#mc09ed48ab0" x="349.504" y="307.584" style="stroke: #000000; stroke-width: 0.8"/>
      </g>
     </g>
     <g id="text_8">
      <!-- 0.25 -->
      <g transform="translate(338.371187 322.182437) scale(0.1 -0.1)">
       <use xlink:href="#DejaVuSans-30"/>
       <use xlink:href="#DejaVuSans-2e" x="63.623047"/>
       <use xlink:href="#DejaVuSans-32" x="95.410156"/>
       <use xlink:href="#DejaVuSans-35" x="159.033203"/>
      </g>
     </g>
    </g>
    <g id="text_9">
     <!-- True Values [Cp] -->
     <g transform="translate(195.461563 335.860562) scale(0.1 -0.1)">
      <defs>
       <path id="DejaVuSans-54" d="M -19 4666 
L 3928 4666 
L 3928 4134 
L 2272 4134 
L 2272 0 
L 1638 0 
L 1638 4134 
L -19 4134 
L -19 4666 
z
" transform="scale(0.015625)"/>
       <path id="DejaVuSans-72" d="M 2631 2963 
Q 2534 3019 2420 3045 
Q 2306 3072 2169 3072 
Q 1681 3072 1420 2755 
Q 1159 2438 1159 1844 
L 1159 0 
L 581 0 
L 581 3500 
L 1159 3500 
L 1159 2956 
Q 1341 3275 1631 3429 
Q 1922 3584 2338 3584 
Q 2397 3584 2469 3576 
Q 2541 3569 2628 3553 
L 2631 2963 
z
" transform="scale(0.015625)"/>
       <path id="DejaVuSans-75" d="M 544 1381 
L 544 3500 
L 1119 3500 
L 1119 1403 
Q 1119 906 1312 657 
Q 1506 409 1894 409 
Q 2359 409 2629 706 
Q 2900 1003 2900 1516 
L 2900 3500 
L 3475 3500 
L 3475 0 
L 2900 0 
L 2900 538 
Q 2691 219 2414 64 
Q 2138 -91 1772 -91 
Q 1169 -91 856 284 
Q 544 659 544 1381 
z
M 1991 3584 
L 1991 3584 
z
" transform="scale(0.015625)"/>
       <path id="DejaVuSans-65" d="M 3597 1894 
L 3597 1613 
L 953 1613 
Q 991 1019 1311 708 
Q 1631 397 2203 397 
Q 2534 397 2845 478 
Q 3156 559 3463 722 
L 3463 178 
Q 3153 47 2828 -22 
Q 2503 -91 2169 -91 
Q 1331 -91 842 396 
Q 353 884 353 1716 
Q 353 2575 817 3079 
Q 1281 3584 2069 3584 
Q 2775 3584 3186 3129 
Q 3597 2675 3597 1894 
z
M 3022 2063 
Q 3016 2534 2758 2815 
Q 2500 3097 2075 3097 
Q 1594 3097 1305 2825 
Q 1016 2553 972 2059 
L 3022 2063 
z
" transform="scale(0.015625)"/>
       <path id="DejaVuSans-20" transform="scale(0.015625)"/>
       <path id="DejaVuSans-56" d="M 1831 0 
L 50 4666 
L 709 4666 
L 2188 738 
L 3669 4666 
L 4325 4666 
L 2547 0 
L 1831 0 
z
" transform="scale(0.015625)"/>
       <path id="DejaVuSans-61" d="M 2194 1759 
Q 1497 1759 1228 1600 
Q 959 1441 959 1056 
Q 959 750 1161 570 
Q 1363 391 1709 391 
Q 2188 391 2477 730 
Q 2766 1069 2766 1631 
L 2766 1759 
L 2194 1759 
z
M 3341 1997 
L 3341 0 
L 2766 0 
L 2766 531 
Q 2569 213 2275 61 
Q 1981 -91 1556 -91 
Q 1019 -91 701 211 
Q 384 513 384 1019 
Q 384 1609 779 1909 
Q 1175 2209 1959 2209 
L 2766 2209 
L 2766 2266 
Q 2766 2663 2505 2880 
Q 2244 3097 1772 3097 
Q 1472 3097 1187 3025 
Q 903 2953 641 2809 
L 641 3341 
Q 956 3463 1253 3523 
Q 1550 3584 1831 3584 
Q 2591 3584 2966 3190 
Q 3341 2797 3341 1997 
z
" transform="scale(0.015625)"/>
       <path id="DejaVuSans-6c" d="M 603 4863 
L 1178 4863 
L 1178 0 
L 603 0 
L 603 4863 
z
" transform="scale(0.015625)"/>
       <path id="DejaVuSans-73" d="M 2834 3397 
L 2834 2853 
Q 2591 2978 2328 3040 
Q 2066 3103 1784 3103 
Q 1356 3103 1142 2972 
Q 928 2841 928 2578 
Q 928 2378 1081 2264 
Q 1234 2150 1697 2047 
L 1894 2003 
Q 2506 1872 2764 1633 
Q 3022 1394 3022 966 
Q 3022 478 2636 193 
Q 2250 -91 1575 -91 
Q 1294 -91 989 -36 
Q 684 19 347 128 
L 347 722 
Q 666 556 975 473 
Q 1284 391 1588 391 
Q 1994 391 2212 530 
Q 2431 669 2431 922 
Q 2431 1156 2273 1281 
Q 2116 1406 1581 1522 
L 1381 1569 
Q 847 1681 609 1914 
Q 372 2147 372 2553 
Q 372 3047 722 3315 
Q 1072 3584 1716 3584 
Q 2034 3584 2315 3537 
Q 2597 3491 2834 3397 
z
" transform="scale(0.015625)"/>
       <path id="DejaVuSans-5b" d="M 550 4863 
L 1875 4863 
L 1875 4416 
L 1125 4416 
L 1125 -397 
L 1875 -397 
L 1875 -844 
L 550 -844 
L 550 4863 
z
" transform="scale(0.015625)"/>
       <path id="DejaVuSans-43" d="M 4122 4306 
L 4122 3641 
Q 3803 3938 3442 4084 
Q 3081 4231 2675 4231 
Q 1875 4231 1450 3742 
Q 1025 3253 1025 2328 
Q 1025 1406 1450 917 
Q 1875 428 2675 428 
Q 3081 428 3442 575 
Q 3803 722 4122 1019 
L 4122 359 
Q 3791 134 3420 21 
Q 3050 -91 2638 -91 
Q 1578 -91 968 557 
Q 359 1206 359 2328 
Q 359 3453 968 4101 
Q 1578 4750 2638 4750 
Q 3056 4750 3426 4639 
Q 3797 4528 4122 4306 
z
" transform="scale(0.015625)"/>
       <path id="DejaVuSans-70" d="M 1159 525 
L 1159 -1331 
L 581 -1331 
L 581 3500 
L 1159 3500 
L 1159 2969 
Q 1341 3281 1617 3432 
Q 1894 3584 2278 3584 
Q 2916 3584 3314 3078 
Q 3713 2572 3713 1747 
Q 3713 922 3314 415 
Q 2916 -91 2278 -91 
Q 1894 -91 1617 61 
Q 1341 213 1159 525 
z
M 3116 1747 
Q 3116 2381 2855 2742 
Q 2594 3103 2138 3103 
Q 1681 3103 1420 2742 
Q 1159 2381 1159 1747 
Q 1159 1113 1420 752 
Q 1681 391 2138 391 
Q 2594 391 2855 752 
Q 3116 1113 3116 1747 
z
" transform="scale(0.015625)"/>
       <path id="DejaVuSans-5d" d="M 1947 4863 
L 1947 -844 
L 622 -844 
L 622 -397 
L 1369 -397 
L 1369 4416 
L 622 4416 
L 622 4863 
L 1947 4863 
z
" transform="scale(0.015625)"/>
      </defs>
      <use xlink:href="#DejaVuSans-54"/>
      <use xlink:href="#DejaVuSans-72" x="46.333984"/>
      <use xlink:href="#DejaVuSans-75" x="87.447266"/>
      <use xlink:href="#DejaVuSans-65" x="150.826172"/>
      <use xlink:href="#DejaVuSans-20" x="212.349609"/>
      <use xlink:href="#DejaVuSans-56" x="244.136719"/>
      <use xlink:href="#DejaVuSans-61" x="304.794922"/>
      <use xlink:href="#DejaVuSans-6c" x="366.074219"/>
      <use xlink:href="#DejaVuSans-75" x="393.857422"/>
      <use xlink:href="#DejaVuSans-65" x="457.236328"/>
      <use xlink:href="#DejaVuSans-73" x="518.759766"/>
      <use xlink:href="#DejaVuSans-20" x="570.859375"/>
      <use xlink:href="#DejaVuSans-5b" x="602.646484"/>
      <use xlink:href="#DejaVuSans-43" x="641.660156"/>
      <use xlink:href="#DejaVuSans-70" x="711.484375"/>
      <use xlink:href="#DejaVuSans-5d" x="774.960938"/>
     </g>
    </g>
   </g>
   <g id="matplotlib.axis_2">
    <g id="ytick_1">
     <g id="line2d_9">
      <defs>
       <path id="mc75b0aa8dc" d="M 0 0 
L -3.5 0 
" style="stroke: #000000; stroke-width: 0.8"/>
      </defs>
      <g>
       <use xlink:href="#mc75b0aa8dc" x="103.104" y="307.584" style="stroke: #000000; stroke-width: 0.8"/>
      </g>
     </g>
     <g id="text_10">
      <!-- −1.50 -->
      <g transform="translate(65.458688 311.383219) scale(0.1 -0.1)">
       <use xlink:href="#DejaVuSans-2212"/>
       <use xlink:href="#DejaVuSans-31" x="83.789062"/>
       <use xlink:href="#DejaVuSans-2e" x="147.412109"/>
       <use xlink:href="#DejaVuSans-35" x="179.199219"/>
       <use xlink:href="#DejaVuSans-30" x="242.822266"/>
      </g>
     </g>
    </g>
    <g id="ytick_2">
     <g id="line2d_10">
      <g>
       <use xlink:href="#mc75b0aa8dc" x="103.104" y="272.384" style="stroke: #000000; stroke-width: 0.8"/>
      </g>
     </g>
     <g id="text_11">
      <!-- −1.25 -->
      <g transform="translate(65.458688 276.183219) scale(0.1 -0.1)">
       <use xlink:href="#DejaVuSans-2212"/>
       <use xlink:href="#DejaVuSans-31" x="83.789062"/>
       <use xlink:href="#DejaVuSans-2e" x="147.412109"/>
       <use xlink:href="#DejaVuSans-32" x="179.199219"/>
       <use xlink:href="#DejaVuSans-35" x="242.822266"/>
      </g>
     </g>
    </g>
    <g id="ytick_3">
     <g id="line2d_11">
      <g>
       <use xlink:href="#mc75b0aa8dc" x="103.104" y="237.184" style="stroke: #000000; stroke-width: 0.8"/>
      </g>
     </g>
     <g id="text_12">
      <!-- −1.00 -->
      <g transform="translate(65.458688 240.983219) scale(0.1 -0.1)">
       <use xlink:href="#DejaVuSans-2212"/>
       <use xlink:href="#DejaVuSans-31" x="83.789062"/>
       <use xlink:href="#DejaVuSans-2e" x="147.412109"/>
       <use xlink:href="#DejaVuSans-30" x="179.199219"/>
       <use xlink:href="#DejaVuSans-30" x="242.822266"/>
      </g>
     </g>
    </g>
    <g id="ytick_4">
     <g id="line2d_12">
      <g>
       <use xlink:href="#mc75b0aa8dc" x="103.104" y="201.984" style="stroke: #000000; stroke-width: 0.8"/>
      </g>
     </g>
     <g id="text_13">
      <!-- −0.75 -->
      <g transform="translate(65.458688 205.783219) scale(0.1 -0.1)">
       <use xlink:href="#DejaVuSans-2212"/>
       <use xlink:href="#DejaVuSans-30" x="83.789062"/>
       <use xlink:href="#DejaVuSans-2e" x="147.412109"/>
       <use xlink:href="#DejaVuSans-37" x="179.199219"/>
       <use xlink:href="#DejaVuSans-35" x="242.822266"/>
      </g>
     </g>
    </g>
    <g id="ytick_5">
     <g id="line2d_13">
      <g>
       <use xlink:href="#mc75b0aa8dc" x="103.104" y="166.784" style="stroke: #000000; stroke-width: 0.8"/>
      </g>
     </g>
     <g id="text_14">
      <!-- −0.50 -->
      <g transform="translate(65.458688 170.583219) scale(0.1 -0.1)">
       <use xlink:href="#DejaVuSans-2212"/>
       <use xlink:href="#DejaVuSans-30" x="83.789062"/>
       <use xlink:href="#DejaVuSans-2e" x="147.412109"/>
       <use xlink:href="#DejaVuSans-35" x="179.199219"/>
       <use xlink:href="#DejaVuSans-30" x="242.822266"/>
      </g>
     </g>
    </g>
    <g id="ytick_6">
     <g id="line2d_14">
      <g>
       <use xlink:href="#mc75b0aa8dc" x="103.104" y="131.584" style="stroke: #000000; stroke-width: 0.8"/>
      </g>
     </g>
     <g id="text_15">
      <!-- −0.25 -->
      <g transform="translate(65.458688 135.383219) scale(0.1 -0.1)">
       <use xlink:href="#DejaVuSans-2212"/>
       <use xlink:href="#DejaVuSans-30" x="83.789062"/>
       <use xlink:href="#DejaVuSans-2e" x="147.412109"/>
       <use xlink:href="#DejaVuSans-32" x="179.199219"/>
       <use xlink:href="#DejaVuSans-35" x="242.822266"/>
      </g>
     </g>
    </g>
    <g id="ytick_7">
     <g id="line2d_15">
      <g>
       <use xlink:href="#mc75b0aa8dc" x="103.104" y="96.384" style="stroke: #000000; stroke-width: 0.8"/>
      </g>
     </g>
     <g id="text_16">
      <!-- 0.00 -->
      <g transform="translate(73.838375 100.183219) scale(0.1 -0.1)">
       <use xlink:href="#DejaVuSans-30"/>
       <use xlink:href="#DejaVuSans-2e" x="63.623047"/>
       <use xlink:href="#DejaVuSans-30" x="95.410156"/>
       <use xlink:href="#DejaVuSans-30" x="159.033203"/>
      </g>
     </g>
    </g>
    <g id="ytick_8">
     <g id="line2d_16">
      <g>
       <use xlink:href="#mc75b0aa8dc" x="103.104" y="61.184" style="stroke: #000000; stroke-width: 0.8"/>
      </g>
     </g>
     <g id="text_17">
      <!-- 0.25 -->
      <g transform="translate(73.838375 64.983219) scale(0.1 -0.1)">
       <use xlink:href="#DejaVuSans-30"/>
       <use xlink:href="#DejaVuSans-2e" x="63.623047"/>
       <use xlink:href="#DejaVuSans-32" x="95.410156"/>
       <use xlink:href="#DejaVuSans-35" x="159.033203"/>
      </g>
     </g>
    </g>
    <g id="text_18">
     <!-- Predictions [Cp] -->
     <g transform="translate(59.379 214.125656) rotate(-90) scale(0.1 -0.1)">
      <defs>
       <path id="DejaVuSans-50" d="M 1259 4147 
L 1259 2394 
L 2053 2394 
Q 2494 2394 2734 2622 
Q 2975 2850 2975 3272 
Q 2975 3691 2734 3919 
Q 2494 4147 2053 4147 
L 1259 4147 
z
M 628 4666 
L 2053 4666 
Q 2838 4666 3239 4311 
Q 3641 3956 3641 3272 
Q 3641 2581 3239 2228 
Q 2838 1875 2053 1875 
L 1259 1875 
L 1259 0 
L 628 0 
L 628 4666 
z
" transform="scale(0.015625)"/>
       <path id="DejaVuSans-64" d="M 2906 2969 
L 2906 4863 
L 3481 4863 
L 3481 0 
L 2906 0 
L 2906 525 
Q 2725 213 2448 61 
Q 2172 -91 1784 -91 
Q 1150 -91 751 415 
Q 353 922 353 1747 
Q 353 2572 751 3078 
Q 1150 3584 1784 3584 
Q 2172 3584 2448 3432 
Q 2725 3281 2906 2969 
z
M 947 1747 
Q 947 1113 1208 752 
Q 1469 391 1925 391 
Q 2381 391 2643 752 
Q 2906 1113 2906 1747 
Q 2906 2381 2643 2742 
Q 2381 3103 1925 3103 
Q 1469 3103 1208 2742 
Q 947 2381 947 1747 
z
" transform="scale(0.015625)"/>
       <path id="DejaVuSans-69" d="M 603 3500 
L 1178 3500 
L 1178 0 
L 603 0 
L 603 3500 
z
M 603 4863 
L 1178 4863 
L 1178 4134 
L 603 4134 
L 603 4863 
z
" transform="scale(0.015625)"/>
       <path id="DejaVuSans-63" d="M 3122 3366 
L 3122 2828 
Q 2878 2963 2633 3030 
Q 2388 3097 2138 3097 
Q 1578 3097 1268 2742 
Q 959 2388 959 1747 
Q 959 1106 1268 751 
Q 1578 397 2138 397 
Q 2388 397 2633 464 
Q 2878 531 3122 666 
L 3122 134 
Q 2881 22 2623 -34 
Q 2366 -91 2075 -91 
Q 1284 -91 818 406 
Q 353 903 353 1747 
Q 353 2603 823 3093 
Q 1294 3584 2113 3584 
Q 2378 3584 2631 3529 
Q 2884 3475 3122 3366 
z
" transform="scale(0.015625)"/>
       <path id="DejaVuSans-74" d="M 1172 4494 
L 1172 3500 
L 2356 3500 
L 2356 3053 
L 1172 3053 
L 1172 1153 
Q 1172 725 1289 603 
Q 1406 481 1766 481 
L 2356 481 
L 2356 0 
L 1766 0 
Q 1100 0 847 248 
Q 594 497 594 1153 
L 594 3053 
L 172 3053 
L 172 3500 
L 594 3500 
L 594 4494 
L 1172 4494 
z
" transform="scale(0.015625)"/>
       <path id="DejaVuSans-6f" d="M 1959 3097 
Q 1497 3097 1228 2736 
Q 959 2375 959 1747 
Q 959 1119 1226 758 
Q 1494 397 1959 397 
Q 2419 397 2687 759 
Q 2956 1122 2956 1747 
Q 2956 2369 2687 2733 
Q 2419 3097 1959 3097 
z
M 1959 3584 
Q 2709 3584 3137 3096 
Q 3566 2609 3566 1747 
Q 3566 888 3137 398 
Q 2709 -91 1959 -91 
Q 1206 -91 779 398 
Q 353 888 353 1747 
Q 353 2609 779 3096 
Q 1206 3584 1959 3584 
z
" transform="scale(0.015625)"/>
       <path id="DejaVuSans-6e" d="M 3513 2113 
L 3513 0 
L 2938 0 
L 2938 2094 
Q 2938 2591 2744 2837 
Q 2550 3084 2163 3084 
Q 1697 3084 1428 2787 
Q 1159 2491 1159 1978 
L 1159 0 
L 581 0 
L 581 3500 
L 1159 3500 
L 1159 2956 
Q 1366 3272 1645 3428 
Q 1925 3584 2291 3584 
Q 2894 3584 3203 3211 
Q 3513 2838 3513 2113 
z
" transform="scale(0.015625)"/>
      </defs>
      <use xlink:href="#DejaVuSans-50"/>
      <use xlink:href="#DejaVuSans-72" x="58.552734"/>
      <use xlink:href="#DejaVuSans-65" x="97.416016"/>
      <use xlink:href="#DejaVuSans-64" x="158.939453"/>
      <use xlink:href="#DejaVuSans-69" x="222.416016"/>
      <use xlink:href="#DejaVuSans-63" x="250.199219"/>
      <use xlink:href="#DejaVuSans-74" x="305.179688"/>
      <use xlink:href="#DejaVuSans-69" x="344.388672"/>
      <use xlink:href="#DejaVuSans-6f" x="372.171875"/>
      <use xlink:href="#DejaVuSans-6e" x="433.353516"/>
      <use xlink:href="#DejaVuSans-73" x="496.732422"/>
      <use xlink:href="#DejaVuSans-20" x="548.832031"/>
      <use xlink:href="#DejaVuSans-5b" x="580.619141"/>
      <use xlink:href="#DejaVuSans-43" x="619.632812"/>
      <use xlink:href="#DejaVuSans-70" x="689.457031"/>
      <use xlink:href="#DejaVuSans-5d" x="752.933594"/>
     </g>
    </g>
   </g>
   <g id="line2d_17">
    <path d="M 103.104 307.584 
L 369.216 41.472 
" clip-path="url(#p712f58c2b6)" style="fill: none; stroke: #1f77b4; stroke-width: 1.5; stroke-linecap: square"/>
   </g>
   <g id="patch_3">
    <path d="M 103.104 307.584 
L 103.104 41.472 
" style="fill: none; stroke: #000000; stroke-width: 0.8; stroke-linejoin: miter; stroke-linecap: square"/>
   </g>
   <g id="patch_4">
    <path d="M 369.216 307.584 
L 369.216 41.472 
" style="fill: none; stroke: #000000; stroke-width: 0.8; stroke-linejoin: miter; stroke-linecap: square"/>
   </g>
   <g id="patch_5">
    <path d="M 103.104 307.584 
L 369.216 307.584 
" style="fill: none; stroke: #000000; stroke-width: 0.8; stroke-linejoin: miter; stroke-linecap: square"/>
   </g>
   <g id="patch_6">
    <path d="M 103.104 41.472 
L 369.216 41.472 
" style="fill: none; stroke: #000000; stroke-width: 0.8; stroke-linejoin: miter; stroke-linecap: square"/>
   </g>
  </g>
 </g>
 <defs>
  <clipPath id="p712f58c2b6">
   <rect x="103.104" y="41.472" width="266.112" height="266.112"/>
  </clipPath>
 </defs>
</svg>
